<?xml version="1.0" encoding="utf-8"?><!-- Uploaded to: SVG Repo, www.svgrepo.com, Generator: SVG Repo Mixer Tools -->
<svg version="1.1" id="Uploaded to svgrepo.com" xmlns="http://www.w3.org/2000/svg" xmlns:xlink="http://www.w3.org/1999/xlink" 
	 width="800px" height="800px" viewBox="0 0 32 32" xml:space="preserve">
<style type="text/css">
	.blueprint_een{fill:#111918;}
</style>
<path class="blueprint_een" d="M15,14H3v3h12V14z M14,16H4v-1h10V16z M6,21h16v-3H6V21z M7,19h14v1H7V19z M22,29h7v-3h-7V29z M23,27h5v1h-5V27z M14,25h13v-3H14V25z M15,23h11v1H15V23z M31,5h-3V3c0-1.654-1.346-3-3-3s-3,1.346-3,3v2H10V3c0-1.654-1.346-3-3-3S4,1.346,4,3v2H1C0.448,5,0,5.448,0,6v25c0,0.552,0.448,1,1,1h30c0.552,0,1-0.448,1-1V6C32,5.448,31.552,5,31,5z M24,3c0-0.552,0.448-1,1-1s1,0.448,1,1v5c0,0.551-0.449,1-1,1s-1-0.449-1-1V3z M6,3c0-0.552,0.448-1,1-1s1,0.448,1,1v5c0,0.551-0.449,1-1,1S6,8.551,6,8V3z M30,30H2V12h28V30z M30,11H2V7h3v1c0,1.105,0.895,2,2,2s2-0.895,2-2V7h14v1c0,1.105,0.895,2,2,2s2-0.895,2-2V7h3V11z"/>
</svg>